<svg xmlns="http://www.w3.org/2000/svg" viewBox="0 0 26.73 26.73"><defs><style>.cls-1{fill:#fff;}</style></defs><title>phone</title><g id="Capa_2" data-name="Capa 2"><g id="Layer_1" data-name="Layer 1"><path class="cls-1" d="M5.38,11.57a22.43,22.43,0,0,0,9.78,9.78l3.27-3.26a1.45,1.45,0,0,1,1.51-.36,16.91,16.91,0,0,0,5.3.85,1.49,1.49,0,0,1,1.49,1.48v5.18a1.49,1.49,0,0,1-1.49,1.49A25.24,25.24,0,0,1,0,1.49,1.49,1.49,0,0,1,1.49,0H6.68A1.49,1.49,0,0,1,8.17,1.49,16.9,16.9,0,0,0,9,6.79,1.46,1.46,0,0,1,8.64,8.3Z"/></g></g></svg>